<?xml version="1.0" standalone="no"?><!DOCTYPE svg PUBLIC "-//W3C//DTD SVG 1.1//EN" "http://www.w3.org/Graphics/SVG/1.1/DTD/svg11.dtd"><svg t="1699114858082" class="icon" viewBox="0 0 1024 1024" version="1.1" xmlns="http://www.w3.org/2000/svg" p-id="5053" xmlns:xlink="http://www.w3.org/1999/xlink" width="128" height="128"><path d="M512 955.733333c-121.890133 0-227.584-43.8784-314.146133-130.440533C111.872 739.2768 68.266667 633.890133 68.266667 512c0-18.414933 1.194667-36.676267 3.566933-54.3232 10.5472-98.594133 52.957867-186.1632 125.969067-259.771733l0.085333-0.085334C284.450133 111.854933 390.126933 68.266667 512 68.266667c121.9072 0 227.293867 43.605333 313.2928 129.5872 73.5744 73.5744 116.548267 161.109333 127.761067 260.181333 1.774933 17.698133 2.679467 35.7888 2.679466 53.9648 0 121.924267-43.895467 227.328-130.474666 313.326933C739.328 911.837867 633.924267 955.733333 512 955.733333zM221.986133 221.986133c-67.396267 67.959467-106.513067 148.6336-116.258133 239.786667A375.620267 375.620267 0 0 0 102.4 512c0 112.503467 40.226133 209.783467 119.586133 289.160533C301.909333 881.083733 399.496533 921.6 512 921.6c112.4864 0 209.7664-40.4992 289.1264-120.405333C881.1008 721.7664 921.6 624.4864 921.6 512c0-17.0496-0.836267-33.979733-2.491733-50.346667-10.308267-90.9824-49.988267-171.707733-117.947734-239.6672C721.800533 142.626133 624.520533 102.4 512 102.4s-210.107733 40.226133-290.013867 119.586133zM597.333333 785.066667a17.066667 17.066667 0 0 1-17.066666-17.066667V512a17.066667 17.066667 0 1 1 34.133333 0v256a17.066667 17.066667 0 0 1-17.066667 17.066667z m-170.666666 0a17.066667 17.066667 0 0 1-17.066667-17.066667V512a17.066667 17.066667 0 0 1 34.133333 0v256a17.066667 17.066667 0 0 1-17.066666 17.066667z m85.333333-341.333334c-27.904 0-52.343467-10.2912-72.6528-30.600533C419.601067 393.403733 409.6 369.2544 409.6 341.333333c0-27.8016 9.949867-52.1728 29.5424-72.448C459.8272 248.8832 484.1984 238.933333 512 238.933333c27.921067 0 52.0704 10.001067 71.799467 29.7472C604.091733 288.989867 614.4 313.429333 614.4 341.333333c0 28.023467-10.359467 52.241067-30.805333 72.004267C564.258133 433.373867 540.023467 443.733333 512 443.733333z m0-170.666666c-18.8928 0-34.850133 6.519467-48.708267 19.950933C450.2528 306.4832 443.733333 322.440533 443.733333 341.333333c0 18.7904 6.4512 34.389333 19.746134 47.650134C477.354667 402.858667 493.2096 409.6 512 409.6c18.670933 0 34.2016-6.673067 47.4624-20.394667C573.5936 375.517867 580.266667 360.004267 580.266667 341.333333c0-18.7904-6.741333-34.645333-20.599467-48.520533C546.389333 279.517867 530.7904 273.066667 512 273.066667z" p-id="5054" fill="#36ab60"></path><path d="M597.333333 785.066667H426.666667v-34.133334h170.666666v34.133334z m0-256H426.666667v-34.133334h170.666666v34.133334z" p-id="5055" fill="#36ab60"></path></svg>