<svg width="144" height="23" viewBox="0 0 144 23" fill="none" xmlns="http://www.w3.org/2000/svg">
<path d="M55.8904 10.3026C54.8419 9.51675 55.2451 8.80947 55.2451 8.80947C55.2451 8.80947 57.2614 6.68764 57.2614 4.48723C57.2614 0.793658 50.4061 0.00779373 49.9222 0.00779373C49.4383 0.00779373 44.4382 -0.227966 42.6639 1.89387C40.8088 4.01569 40.0831 13.1317 40.0831 13.1317C39.841 18.1612 42.7444 18.0041 42.7444 18.0041C42.7444 18.0041 42.5026 18.6328 43.0671 19.1043C43.551 19.5758 45.6478 20.2045 47.6641 20.2045C49.6804 20.2045 53.2288 19.9687 54.4387 19.4186C55.6483 18.7899 58.1485 17.6111 58.5517 15.0178C58.9549 12.4244 56.8582 11.0885 55.8904 10.3026ZM49.0351 3.77994C50.5675 2.99408 51.5353 3.15124 52.0192 3.77994C52.5031 4.40862 53.9548 5.90177 51.3739 7.31632C48.7933 8.73089 46.777 9.83108 46.3738 8.33795C46.3738 8.33795 47.5027 4.64439 49.0351 3.77994ZM49.3578 15.3321C47.5834 15.8037 46.3738 15.3321 46.3738 15.3321L46.1317 14.8606L46.051 12.1887C46.051 12.1887 47.1802 12.1101 47.9061 12.2673C48.6319 12.503 50.6482 12.1887 51.5353 12.3458C52.3417 12.5816 52.987 12.8174 52.987 13.4461C52.987 13.9962 51.1321 14.8606 49.3578 15.3321ZM20.6465 9.7525C20.2433 11.0885 20.0013 12.5816 19.9207 14.3105C19.6787 20.0473 22.5822 19.733 22.5822 19.733C24.7596 19.8901 25.0017 19.0257 25.8888 18.2398C26.8566 17.3754 27.4212 16.4323 27.0984 15.8822C26.6145 15.0964 26.8566 14.7034 27.3405 14.4677C27.7437 14.2319 33.2278 13.9962 33.2278 13.9962C33.2278 13.9962 33.3085 17.7683 35.8893 19.1043C36.8571 19.5758 38.1475 20.1259 39.5185 19.1043C40.8895 18.0827 40.4056 16.0394 40.1637 14.3105C39.841 12.5816 39.1153 11.167 39.1153 7.08057C39.1153 2.20821 34.9215 0.243554 32.9859 0.400725C31.7761 0.479311 29.5986 -0.306553 26.292 2.28679C24.4371 3.77994 22.9047 5.27307 21.8562 7.23774L20.6465 9.7525ZM34.5988 5.90177C34.3569 6.37329 33.2278 11.7957 33.2278 11.7957C33.2278 11.7957 29.9212 11.7957 28.6308 12.1101C27.2598 12.4244 26.292 12.4244 26.292 12.4244L26.7759 9.43815C26.7759 9.43815 28.6308 3.70136 31.9374 3.70136C35.2441 3.70136 34.8408 5.43026 34.5988 5.90177ZM71.2945 0.636485C70.8106 0.164967 69.9233 0.164966 69.4394 1.108C68.9555 2.12963 69.3589 4.72297 68.633 5.74461C67.9072 6.76622 66.3748 8.0236 65.7295 8.0236C65.0845 8.0236 65.2457 8.65228 63.6328 8.88805C62.1004 9.2024 62.2618 7.47351 62.5843 6.76622C62.9068 6.05894 63.0682 4.95874 62.9068 2.67973C62.665 0.400725 59.6809 0.400725 59.6809 0.400725C59.6809 0.400725 57.826 0.00779361 57.3421 3.70136C56.6968 8.25937 58.7131 10.9313 58.7131 10.9313C59.6002 12.0315 61.3745 11.9529 61.939 12.7388C62.4229 13.5246 61.5358 17.1396 61.939 18.3184C62.3423 19.4972 63.8746 20.1259 64.5199 20.2045C65.6489 20.2831 65.8909 18.7899 66.3748 17.6897C67.1006 16.118 67.3426 12.5816 67.8265 12.1101C68.3104 11.6386 69.1975 11.8743 71.4557 9.90969C73.714 7.94502 74.3591 5.19449 74.4398 4.09429C74.3591 2.99408 71.7784 1.108 71.2945 0.636485Z" fill="#EF498F"/>
<path d="M19.1139 10.0669C18.4687 9.43821 15.4041 8.65234 16.7751 8.10224C18.4687 7.39496 19.1139 5.98041 19.1139 5.11597C19.1139 4.40868 15.8073 1.50098 15.3234 0.872293C14.8395 0.243603 11.6942 0.165016 10.9683 0.165016C10.2425 0.165016 5.00027 0.00784367 2.58079 3.93717C0.0806497 7.86648 0 16.0395 0 16.0395C0.403247 18.3185 2.33884 18.6328 3.22597 18.8686C4.11313 19.1043 5.56481 18.8686 5.56481 18.8686C5.56481 18.8686 5.48417 20.126 5.80676 20.6761C6.12937 21.2262 6.77456 21.6977 7.50041 21.3047C8.22626 20.9118 9.03275 20.3617 10.9683 19.8902C12.2587 19.5758 15.9686 20.126 18.872 16.9039C21.6141 13.6819 19.7591 10.617 19.1139 10.0669ZM13.3878 14.5463C10.9683 16.118 7.6617 16.3538 7.6617 16.3538C7.6617 16.3538 7.58105 10.9313 7.90365 9.20244C8.22626 7.47354 10.5651 4.64443 11.9361 3.7014C13.3072 2.75837 13.8717 3.54423 13.8717 3.85858C13.8717 4.17291 14.5976 6.059 12.5007 7.39496C10.4038 8.73092 9.35535 8.57376 9.35535 9.28104C9.35535 9.98831 10.4038 11.0099 12.0168 11.0099C13.6298 11.0099 14.3556 10.5384 14.5976 11.0099C14.7589 11.3243 14.5169 13.7605 13.3878 14.5463Z" fill="#EF498F"/>
<path d="M139.766 10.8529C138.637 10.6957 134.927 11.6388 135.088 12.1889C135.249 12.739 136.378 13.6034 136.378 13.6034C136.378 13.6034 136.056 15.5681 133.394 15.4895C130.733 15.4109 130.733 11.6388 131.701 9.51695C132.668 7.31652 134.685 7.4737 135.733 7.3951C136.862 7.31652 136.862 7.86664 137.507 8.33815C138.153 8.80967 138.878 7.86664 139.846 7.63087C140.814 7.3951 141.298 6.845 141.459 6.05914C141.62 5.27327 139.846 1.89406 136.136 1.50113C132.346 1.1082 129.765 2.67992 129.765 2.67992C127.749 3.93731 126.862 6.37349 126.539 8.88825C126.539 8.10238 126.458 7.23794 126.297 6.2949C125.733 2.67992 122.749 0.872441 120.007 0.793854C117.345 0.71527 115.006 1.81548 115.006 1.81548C115.006 1.81548 111.296 0.47951 109.199 4.80175C109.199 4.80175 106.296 10.8529 108.958 15.4895C108.393 14.8608 107.506 14.1535 106.941 14.1535C106.215 14.1535 105.49 15.961 103.231 15.6467C100.973 15.3323 102.425 9.59553 102.828 8.10238C103.231 6.60926 105.006 3.54437 105.086 3.07286C105.167 2.60134 103.312 1.1082 101.538 0.951027C100.247 0.872441 98.3117 1.42255 98.3117 1.42255C98.3117 1.42255 95.7308 5.35187 95.0858 10.6957C95.0051 11.2458 95.0051 11.7959 95.0051 12.346C94.763 11.4816 94.2791 10.8529 94.0373 10.6171C93.392 9.98847 90.3275 9.2026 91.6985 8.6525C93.392 7.94522 94.0373 6.53065 94.0373 5.6662C94.0373 4.95894 90.7307 2.05124 90.2468 1.42255C89.7629 0.793854 86.6176 0.71527 85.8917 0.71527C85.1659 0.71527 79.9237 0.636683 77.4235 4.48743C74.9233 8.41673 74.8427 16.5897 74.8427 16.5897C75.2459 18.8687 77.1815 19.1831 78.0686 19.4188C78.9559 19.6546 80.4076 19.4188 80.4076 19.4188C80.4076 19.4188 80.3269 20.6762 80.6495 21.2263C80.972 21.7764 81.6173 22.2479 82.2625 21.8551C82.9883 21.4621 83.7947 20.912 85.7303 20.4405C87.0208 20.1261 90.7307 20.6762 93.6341 17.4542C94.763 16.2754 95.1665 15.018 95.1665 13.9964C95.8922 17.1398 98.3117 19.576 101.78 19.8118C106.377 20.2047 108.796 17.4542 109.28 17.1398C109.522 16.9826 109.603 16.8255 109.522 16.6683C109.845 17.0612 110.167 17.3756 110.57 17.6899C112.587 19.3402 113.877 20.0475 115.571 20.1261C118.635 20.2833 121.378 18.633 121.378 18.633C121.378 18.633 125.571 16.9827 126.217 11.0101C126.217 12.5032 126.458 13.8392 126.781 14.7822C127.749 17.6113 132.265 20.5976 135.007 20.5976C137.749 20.5976 139.362 17.9257 139.766 17.6899C140.169 17.4542 140.249 18.0829 140.895 18.1614C141.54 18.24 141.54 17.7685 141.54 16.5111C141.54 15.2537 142.911 13.4463 142.911 12.2675C143.153 11.0887 140.895 11.0101 139.766 10.8529ZM88.3919 14.7822C85.9724 16.354 82.6657 16.5897 82.6657 16.5897C82.6657 16.5897 82.5851 11.1673 82.9076 9.43835C83.2303 7.70945 85.5691 4.88034 86.9402 3.93731C88.3112 2.99428 88.8758 3.78014 88.8758 4.09449C88.8758 4.40882 89.6015 6.2949 87.5047 7.63087C85.4078 8.96683 84.3593 8.80967 84.3593 9.51695C84.3593 10.2242 85.4078 11.2458 87.0208 11.2458C88.6337 11.2458 89.3597 10.7743 89.6015 11.2458C89.7629 11.6388 89.5208 14.0749 88.3919 14.7822ZM120.732 11.7174C120.41 13.2891 117.426 15.6467 115.006 15.5681C112.506 15.4895 112.587 14.1535 112.587 12.9747C112.587 11.7959 112.99 8.18097 114.28 7.08077C115.571 5.98055 116.216 4.09449 116.216 4.09449C116.861 4.64459 118.958 4.64459 120.087 5.98055C121.135 7.31652 121.055 10.1456 120.732 11.7174Z" fill="#EF498F"/>
</svg>
