<svg class="img" width="239" height="42" viewBox="0 0 239 42" fill="#000" fill-rule="evenodd"><path d="M223.574 24.088c0-3.282 2.271-5.358 5.142-5.358 2.938 0 5.142 2.21 5.142 5.358 0 3.282-2.204 5.425-5.142 5.425s-5.142-2.277-5.142-5.425zm-5.142 0c0 5.693 4.007 9.912 10.284 9.912S239 29.781 239 24.088s-4.007-9.912-10.284-9.912-10.284 4.219-10.284 9.912zm-9.081-16.275c0 1.942 1.402 3.014 3.005 3.014 1.402 0 2.738-1.072 2.738-3.014 0-1.741-1.403-2.813-2.738-2.813-1.603 0-3.005 1.072-3.005 2.813zm.534 25.718h4.808V14.577h-4.808v18.954zM199 30.383c0 1.741 1.269 3.349 3.339 3.349 1.803 0 3.072-1.607 3.072-3.349 0-1.474-1.269-3.081-3.072-3.081-2.07 0-3.339 1.607-3.339 3.081zM76.691 26.76c-2.014 1.517-4.498 2.309-6.982 2.309-6.042 0-10.204-4.156-10.204-10.16 0-6.267 4.162-10.16 9.6-10.16 2.954 0 4.901.792 6.646 1.979l2.35-3.76C76.154 5.253 72.932 4 69.105 4 59.371 4 54 10.597 54 18.976c0 9.038 6.176 14.976 15.239 14.976 3.827 0 7.586-1.319 9.466-3.299l-2.014-3.892zm5.639 6.597h4.834v-18.67H82.33v18.67zm-.537-25.333c0 1.913 1.41 2.969 3.021 2.969 1.41 0 2.752-1.056 2.752-2.969 0-1.715-1.41-2.771-2.752-2.771-1.611 0-3.021 1.056-3.021 2.771zm10.271 18.274c0 4.75 1.611 7.521 5.908 7.521 2.417 0 4.498-.924 5.639-1.847l-1.477-3.694c-.671.528-1.611 1.056-2.886 1.056-1.611 0-2.283-1.319-2.283-3.365v-6.795h5.706v-4.486h-5.706V9.542h-4.834v16.757h-.067zm36.521 7.059h.604l7.787.066c11.279 0 16.918-6.729 16.918-14.844 0-7.653-4.767-14.316-16.582-14.316-2.148 0-6.378.132-8.123.132h-.537v28.962h-.067zm8.593-24.344c7.049 0 11.144 3.76 11.144 9.566 0 6.135-4.163 10.094-11.279 10.094-.738 0-1.879 0-3.356-.066V9.146c1.275-.066 2.282-.132 3.491-.132zm18.663 15.042c0 5.608 4.028 9.764 10.338 9.764s10.338-4.156 10.338-9.764-4.027-9.764-10.338-9.764c-6.243 0-10.338 4.156-10.338 9.764zm5.236 0c0-3.233 2.282-5.278 5.169-5.278 2.954 0 5.169 2.177 5.169 5.278 0 3.233-2.215 5.344-5.169 5.344-3.021 0-5.169-2.243-5.169-5.344zm-35.983-9.302h-5.505l-3.424 10.16c-.336.924-.537 1.847-.671 2.705-.269-.924-.537-1.781-.94-2.705l-4.431-10.16h-5.84l8.794 18.67-.403.99c-.805 1.979-1.678 2.903-2.887 2.903-.738 0-1.476-.396-2.014-.66l-1.544 3.629c1.075.792 2.35 1.451 4.095 1.451 2.753 0 4.566-1.583 7.318-8.312l7.452-18.67zm52.363 21.177c0 4.288 4.364 6.069 9.869 6.069s9.868-1.913 9.868-6.069-4.363-6.069-9.868-6.069h-.202c-.201-.264-.268-.594-.268-.924 0-.198 0-.462.067-.726h.336c4.9 0 8.056-3.167 8.056-6.861 0-.858-.202-1.649-.47-2.375L198 18.25l-.201-3.826-5.707 1.253c-1.275-.858-2.954-1.319-4.833-1.319-5.035 0-8.123 3.299-8.123 6.993 0 2.705 1.611 5.146 4.498 6.267-.269.396-.403.858-.403 1.32 0 .396.134.924.335 1.253-3.625.726-6.109 2.573-6.109 5.74zm4.498 0c0-1.385 1.88-2.309 5.371-2.309s5.303.924 5.303 2.309c0 1.517-2.014 2.309-5.303 2.309s-5.371-.858-5.371-2.309zm1.746-14.646c0-1.715 1.342-3.167 3.558-3.167 2.282 0 3.558 1.386 3.558 3.167 0 1.847-1.477 3.035-3.558 3.035-2.216 0-3.558-1.319-3.558-3.035zM21.446 29.802l.759-10.762a.82.82 0 0 1 .828-.69c.345 0 .759.207.828.69l.759 10.762c.069 1.104 1.034 1.311 1.862 1.104 1.793-.69 3.655-1.794 5.448-3.173 2.551-2.001 4.896-4.622 6.62-7.244h-5.724c-1.862 0-3.862-.552-4.965-2.001-.483-.621-.759-1.38-.759-2.208 0-1.932 1.586-3.518 3.517-3.518s3.517 1.587 3.517 3.518c0 .276 0 .552-.069.759 0 .069 0 .138-.069.207-.138.828.483 1.242 1.241 1.242h1.172.483c1.103-.069 3.793-.621 4.344-4.346 0-.138 0-.207.069-.345v-.483c0-1.932-1.034-3.104-2.413-4.208C35.239 6.209 29.24 4.76 23.24 4.76c-6.068 0-11.999 1.449-15.654 4.346-1.379 1.104-2.414 2.346-2.414 4.208v.483c0 .138.069.207.069.345.552 3.656 3.172 4.208 4.275 4.277h.552 1.172c.758 0 1.379-.483 1.241-1.242 0-.069-.069-.138-.069-.207-.069-.276-.069-.483-.069-.759 0-1.932 1.586-3.518 3.517-3.518s3.517 1.587 3.517 3.518a3.56 3.56 0 0 1-.759 2.207c-1.103 1.449-3.103 2.001-4.965 2.001H7.93c1.724 2.69 4 5.243 6.62 7.244 1.793 1.38 3.655 2.484 5.448 3.173.483.345 1.379.069 1.448-1.035zm13.447 1.794c-3.724 2.966-7.93 4.898-11.861 4.898s-8.137-1.932-11.861-4.898c-3.034-2.415-5.793-5.45-7.792-8.554C1.31 19.73 0 16.281 0 13.245 0 9.727 1.655 7.45 4.275 5.381 8.827 1.794 15.93 0 22.963 0S37.1 1.794 41.651 5.381c2.621 2.07 4.275 4.346 4.275 7.864 0 3.035-1.31 6.485-3.379 9.796-1.862 3.104-4.62 6.14-7.654 8.554z"></path></svg>