<svg width="134" height="32" viewBox="0 0 134 32" fill="none" xmlns="http://www.w3.org/2000/svg"><g clip-path="url(#prefix__clip0_3306_86898)"><path d="M17.61 21.968a.522.522 0 01-.49-.338l-2.737-7.814-2.066 5.964a.514.514 0 01-.411.338.526.526 0 01-.572-.338l-.52-1.5h-.273a.52.52 0 01-.49-.337l-.17-.486-.165.442a.511.511 0 01-.49.338H6.094a.526.526 0 01-.556-.29.513.513 0 01.135-.608.524.524 0 01.42-.115h2.782l.545-1.456a.521.521 0 01.972 0l.536 1.49h.274a.52.52 0 01.49.337l.153.436 2.08-5.967a.519.519 0 01.789-.249.52.52 0 01.19.249l2.737 7.81 1.437-4.123a.515.515 0 01.493-.337.517.517 0 01.489.338l.794 2.279.154-.436a.512.512 0 01.49-.337h3.31a.527.527 0 01.556.29.513.513 0 01.001.432.52.52 0 01-.556.29h-2.942l-.552 1.51a.515.515 0 01-.41.338.526.526 0 01-.571-.338l-.794-2.28-1.427 4.124a.514.514 0 01-.503.344z" fill="url(#prefix__paint0_linear_3306_86898)"/><g filter="url(#prefix__filter0_d_3306_86898)"><path d="M1.319 29.667H7.72V3.23H1.32v26.438z" fill="#fff"/></g><g filter="url(#prefix__filter1_d_3306_86898)"><path d="M14.436 25.521c2.946 0 5.31-.82 7.052-2.448h.017c1.752-1.625 2.641-3.83 2.641-6.606s-.876-4.98-2.634-6.605c-1.759-1.624-4.123-2.438-7.076-2.438H8.19V3.692l6.247.465 8.845 2.783 4.527 6.493-.938 7.885-5.86 5.798-8.205 2.12-4.616-.777 2.395-2.938h3.852z" fill="#26B1DA"/></g><g filter="url(#prefix__filter2_d_3306_86898)"><path d="M28.64 8.796a13.727 13.727 0 00-5.735-5.104c-2.474-1.206-5.309-1.81-8.502-1.81H.943l.024 29.174h13.437a19.117 19.117 0 008.502-1.82 13.68 13.68 0 005.734-5.1c1.368-2.194 2.052-4.75 2.052-7.668.059-2.7-.653-5.36-2.052-7.673zm-7.528 14.277c-1.741 1.628-4.105 2.448-7.051 2.448h-3.852L7.814 28.46V7.424h6.247c2.952 0 5.317.815 7.075 2.438 1.759 1.625 2.635 3.83 2.635 6.606s-.89 4.98-2.642 6.605h-.017z" fill="url(#prefix__paint1_linear_3306_86898)"/></g><path d="M37.62 8.315h3.643a5.189 5.189 0 012.31.494 3.69 3.69 0 011.56 1.388c.388.624.588 1.345.578 2.08.015.74-.184 1.47-.575 2.1a3.689 3.689 0 01-1.56 1.389 5.19 5.19 0 01-2.313.475H37.62V8.316zm3.554 6.417a2.735 2.735 0 001.923-.676 2.346 2.346 0 00.715-1.796 2.337 2.337 0 00-.715-1.793 2.735 2.735 0 00-1.923-.676h-1.71v4.944l1.71-.003zm7.55 1.11a3.939 3.939 0 01-1.57-1.465 4.165 4.165 0 010-4.198 3.939 3.939 0 011.57-1.465 5.002 5.002 0 014.5 0c.649.346 1.193.86 1.573 1.49a4.013 4.013 0 010 4.149 4.082 4.082 0 01-1.573 1.49 5.003 5.003 0 01-4.5 0zm3.538-1.35c.378-.212.69-.524.9-.902a2.816 2.816 0 000-2.624 2.343 2.343 0 00-.9-.902 2.732 2.732 0 00-2.57 0 2.343 2.343 0 00-.892.902 2.788 2.788 0 000 2.624c.21.378.522.69.9.902a2.73 2.73 0 002.569 0h-.007zm7.673-1.445h-1.283v3.194h-1.847V8.316h1.847v3.204h1.331l2.111-3.204h1.96l-2.627 3.826 2.707 4.1h-2.108l-2.09-3.195zm11.107-3.235h-2.57v6.416h-1.834V9.812h-2.556V8.316h6.96v1.496zm2.63 6.03a3.979 3.979 0 01-1.57-1.465 4.166 4.166 0 010-4.198 3.979 3.979 0 011.57-1.465 5.012 5.012 0 014.503 0c.647.338 1.19.844 1.57 1.466a4.129 4.129 0 010 4.197 4.029 4.029 0 01-1.57 1.466 5.011 5.011 0 01-4.502 0zm3.538-1.35a2.35 2.35 0 00.904-.902 2.811 2.811 0 000-2.623 2.348 2.348 0 00-.897-.902 2.723 2.723 0 00-2.566 0c-.378.21-.69.523-.9.902a2.784 2.784 0 000 2.623c.21.379.522.69.9.902a2.723 2.723 0 002.566 0h-.007zm9.845-5.825c.363.172.686.418.948.722a2.813 2.813 0 01.26 3.33 2.68 2.68 0 01-1.208.983 4.535 4.535 0 01-1.854.338h-1.615v2.184h-1.858V8.316h3.473a4.534 4.534 0 011.854.35zm-.684 3.539a1.243 1.243 0 00.438-1.014 1.251 1.251 0 00-.438-1.012 1.98 1.98 0 00-1.273-.355h-1.512v2.75h1.512a1.98 1.98 0 001.273-.369zm14.23-3.89v7.925h-1.844V9.826h-3.624v6.416h-1.85V8.316h7.318zm1.99 0h1.847v5.163l3.833-5.163h1.741v7.925h-1.834v-5.15l-3.832 5.15h-1.755V8.316zm15.561 1.496h-2.57v6.416h-1.837V9.812h-2.556V8.316h6.963v1.496zm7.383 4.957v1.473h-6.216V8.315h6.066v1.473h-4.219v1.723h3.726v1.425h-3.726v1.833h4.369zm6.831-6.102c.363.172.686.418.948.722a2.808 2.808 0 01.259 3.33c-.296.44-.716.782-1.207.983a4.536 4.536 0 01-1.855.338h-1.614v2.184h-1.858V8.316h3.472a4.536 4.536 0 011.855.351zm-.685 3.54a1.25 1.25 0 00.438-1.014 1.258 1.258 0 00-.438-1.013c-.37-.26-.82-.386-1.272-.355h-1.512v2.75h1.512c.454.026.903-.104 1.272-.369zM39.096 23.68h-.644v1.294h-.561V21.91h.561v1.294h.657l1.006-1.294h.606l-1.174 1.473 1.26 1.59h-.661l-1.05-1.293zm5.506-1.768l-1.505 3.376a1.536 1.536 0 01-.465.66c-.189.13-.414.195-.643.188-.15 0-.3-.024-.442-.071a.885.885 0 01-.342-.21l.24-.418a.771.771 0 00.554.226.515.515 0 00.342-.108.909.909 0 00.25-.364l.099-.217-1.368-3.039h.585l1.08 2.452 1.075-2.452.54-.023zm3.622.168c.234.127.427.317.557.547a1.758 1.758 0 010 1.635c-.13.232-.324.422-.557.55-.25.134-.529.201-.812.196-.21.003-.417-.04-.608-.125a1.262 1.262 0 01-.472-.371v1.583h-.562v-4.183h.537v.486a1.22 1.22 0 01.463-.385c.197-.09.412-.135.629-.132.287-.006.572.062.825.199zm-.322 2.306a.966.966 0 00.376-.38 1.228 1.228 0 000-1.126.957.957 0 00-.376-.378 1.035 1.035 0 00-.534-.135 1.074 1.074 0 00-.53.135 1.014 1.014 0 00-.376.382c-.093.172-.14.365-.137.56a1.11 1.11 0 00.137.561c.083.16.212.294.372.381.163.093.347.14.534.14.187.002.372-.046.534-.14zm2.938.42a1.48 1.48 0 01-.582-.558 1.636 1.636 0 010-1.61 1.47 1.47 0 01.582-.554c.261-.138.553-.208.849-.203.26-.004.516.054.749.169.217.106.396.276.513.486l-.4.284a.927.927 0 00-.363-.338 1.036 1.036 0 00-.48-.112 1.087 1.087 0 00-.546.135.934.934 0 00-.384.379c-.093.173-.14.367-.136.564-.003.197.043.392.136.567.088.16.22.292.384.378.167.093.356.14.547.135a.951.951 0 00.842-.45l.427.264a1.21 1.21 0 01-.513.49c-.232.117-.49.175-.749.17a1.75 1.75 0 01-.876-.197zm7.787-1.166a.614.614 0 01.168.446.691.691 0 01-.188.48 1.19 1.19 0 01-.517.337c-.239.081-.49.12-.742.118-.231 0-.461-.03-.684-.088a2.057 2.057 0 01-.589-.26l.171-.422c.157.097.328.171.506.22.19.05.386.077.582.077.22.01.438-.037.633-.135a.405.405 0 00.24-.368.37.37 0 00-.192-.338 1.039 1.039 0 00-.534-.115h-.557v-.398h.527a.942.942 0 00.495-.111.337.337 0 00.182-.3.334.334 0 00-.212-.338 1.214 1.214 0 00-.579-.119c-.34.008-.673.09-.978.24l-.15-.422a2.613 2.613 0 011.187-.284c.233-.005.464.03.684.105.18.055.342.157.469.294a.64.64 0 01.17.432c.002.15-.053.294-.153.405a.943.943 0 01-.41.274c.18.043.343.137.471.27zm4.762.848v1.198h-.527v-.712h-2.594v.712h-.533v-1.198h.164c.198 0 .335-.138.41-.416.087-.37.138-.748.151-1.128l.048-1.032h2.395v2.576h.486zm-2.512-.544a.94.94 0 01-.263.544h1.738v-2.09h-1.348l-.027.587c-.01.322-.043.642-.1.959zm4.335.862c-.24-.128-.44-.321-.575-.558a1.672 1.672 0 010-1.61 1.43 1.43 0 01.575-.554 1.804 1.804 0 011.662 0c.24.128.438.32.572.554a1.672 1.672 0 010 1.61 1.453 1.453 0 01-.572.558 1.804 1.804 0 01-1.662 0zm1.368-.42a.964.964 0 00.373-.38 1.252 1.252 0 000-1.126.952.952 0 00-.373-.377 1.128 1.128 0 00-1.07 0 .958.958 0 00-.377.377 1.228 1.228 0 000 1.125c.087.16.217.292.377.381a1.101 1.101 0 001.07 0zm4.903-2.306c.24.124.441.313.578.547a1.758 1.758 0 010 1.635 1.433 1.433 0 01-.561.55 1.633 1.633 0 01-.807.196 1.46 1.46 0 01-.613-.125 1.29 1.29 0 01-.472-.372v1.584h-.561v-4.183h.54v.485c.121-.167.284-.3.472-.385.199-.09.415-.134.634-.132.276-.001.548.068.79.2zm-.319 2.306a.967.967 0 00.377-.38 1.23 1.23 0 000-1.126.957.957 0 00-.377-.378 1.036 1.036 0 00-.537-.135 1.062 1.062 0 00-.527.135.988.988 0 00-.376.381 1.1 1.1 0 00-.136.561c-.004.195.041.388.133.56a.923.923 0 00.376.382 1.095 1.095 0 001.067 0zm2.999.42a1.441 1.441 0 01-.575-.558 1.672 1.672 0 010-1.61c.135-.236.334-.428.575-.554a1.804 1.804 0 011.663 0c.239.128.437.32.571.554a1.672 1.672 0 010 1.61 1.457 1.457 0 01-.571.558 1.804 1.804 0 01-1.663 0zm1.368-.42a.963.963 0 00.373-.38 1.252 1.252 0 000-1.126.953.953 0 00-.373-.377 1.128 1.128 0 00-1.07 0 .939.939 0 00-.377.377 1.228 1.228 0 000 1.125c.086.16.216.293.377.381a1.101 1.101 0 001.07 0zm5.176-.256a.714.714 0 01-.308.624 1.584 1.584 0 01-.917.22H77.99V21.91h1.44c.302-.016.602.055.863.207a.678.678 0 01.308.58.693.693 0 01-.13.42.823.823 0 01-.366.266c.176.028.336.12.447.258a.702.702 0 01.155.488zm-2.166-.902h.842a.851.851 0 00.489-.115.38.38 0 00.168-.337c0-.294-.22-.44-.657-.44h-.842v.892zm1.43 1.21a.376.376 0 00.175-.339.395.395 0 00-.161-.338.877.877 0 00-.507-.117h-.937v.918h.9c.185.007.369-.036.53-.125zm2.715.368a1.448 1.448 0 01-.578-.558 1.671 1.671 0 010-1.61c.135-.236.336-.428.578-.554a1.797 1.797 0 011.659 0c.24.129.439.32.575.554a1.671 1.671 0 010 1.61 1.487 1.487 0 01-.575.558 1.797 1.797 0 01-1.659 0zm1.368-.42a.938.938 0 00.373-.38 1.252 1.252 0 000-1.126.93.93 0 00-.373-.377 1.127 1.127 0 00-1.07 0 .957.957 0 00-.377.377 1.223 1.223 0 000 1.125c.087.16.217.292.376.381a1.105 1.105 0 001.071 0zm2.456-2.475h.564v2.232l1.903-2.232h.51v3.063h-.565v-2.232l-1.895 2.232h-.517V21.91v.001zm.78-.604a.75.75 0 01-.246-.591h.38a.464.464 0 00.15.338.557.557 0 00.383.128.57.57 0 00.387-.128.464.464 0 00.15-.338h.394a.75.75 0 01-.25.59 1.04 1.04 0 01-.684.207 1 1 0 01-.664-.206zm8.863 2.374h-.605v1.293h-.547v-1.293h-.616l-.855 1.293h-.668l1.064-1.584-.978-1.479h.595l.838 1.294h.62v-1.293h.56v1.293h.61l.838-1.293h.602l-.982 1.485 1.064 1.577h-.667l-.873-1.293zm2.717-1.77h.56v2.232l1.903-2.232h.51v3.063h-.561v-2.232l-1.899 2.232h-.513V21.91v.001zm6.769 1.729c.114.12.175.28.171.446a.703.703 0 01-.189.48c-.141.155-.32.27-.52.337a2.19 2.19 0 01-.739.118c-.23 0-.46-.03-.684-.088a2.12 2.12 0 01-.589-.26l.172-.422c.157.098.329.171.509.22.189.05.383.076.579.077.22.01.439-.037.636-.135a.406.406 0 00.236-.368.37.37 0 00-.188-.338 1.037 1.037 0 00-.537-.115h-.568v-.398h.527a.943.943 0 00.496-.112.337.337 0 00.181-.3.34.34 0 00-.212-.338 1.212 1.212 0 00-.578-.118c-.339.008-.672.09-.975.24l-.161-.422a2.638 2.638 0 011.19-.284c.233-.005.465.03.685.105.18.054.342.156.469.293.109.118.17.273.171.433a.601.601 0 01-.154.405.928.928 0 01-.408.273c.183.043.35.137.48.27zm1.615-1.729h.561v1.3h1.769v-1.3h.561v3.063h-.561v-1.283h-1.769v1.283h-.561v-3.063zm4.564 0h.565v2.232l1.902-2.232h.51v3.063h-.561v-2.232l-1.899 2.232h-.517V21.91v.001z" fill="#25B1D9"/></g><defs><filter id="prefix__filter0_d_3306_86898" x="-.681" y="-.771" width="12.401" height="32.438" filterUnits="userSpaceOnUse" color-interpolation-filters="sRGB"><feFlood flood-opacity="0" result="BackgroundImageFix"/><feColorMatrix in="SourceAlpha" values="0 0 0 0 0 0 0 0 0 0 0 0 0 0 0 0 0 0 127 0" result="hardAlpha"/><feOffset dx="1" dy="-1"/><feGaussianBlur stdDeviation="1.5"/><feColorMatrix values="0 0 0 0 0.282353 0 0 0 0 0.470588 0 0 0 0 0.85098 0 0 0 0.4 0"/><feBlend in2="BackgroundImageFix" result="effect1_dropShadow_3306_86898"/><feBlend in="SourceGraphic" in2="effect1_dropShadow_3306_86898" result="shape"/></filter><filter id="prefix__filter1_d_3306_86898" x="3.189" y="-.308" width="25.62" height="31.543" filterUnits="userSpaceOnUse" color-interpolation-filters="sRGB"><feFlood flood-opacity="0" result="BackgroundImageFix"/><feColorMatrix in="SourceAlpha" values="0 0 0 0 0 0 0 0 0 0 0 0 0 0 0 0 0 0 127 0" result="hardAlpha"/><feOffset dx="-2" dy="-1"/><feGaussianBlur stdDeviation="1.5"/><feColorMatrix values="0 0 0 0 0.282353 0 0 0 0 0.470588 0 0 0 0 0.85098 0 0 0 0.45 0"/><feBlend in2="BackgroundImageFix" result="effect1_dropShadow_3306_86898"/><feBlend in="SourceGraphic" in2="effect1_dropShadow_3306_86898" result="shape"/></filter><filter id="prefix__filter2_d_3306_86898" x="-1.056" y="-2.117" width="35.752" height="35.176" filterUnits="userSpaceOnUse" color-interpolation-filters="sRGB"><feFlood flood-opacity="0" result="BackgroundImageFix"/><feColorMatrix in="SourceAlpha" values="0 0 0 0 0 0 0 0 0 0 0 0 0 0 0 0 0 0 127 0" result="hardAlpha"/><feOffset dx="1" dy="-1"/><feGaussianBlur stdDeviation="1.5"/><feColorMatrix values="0 0 0 0 0.282353 0 0 0 0 0.470588 0 0 0 0 0.85098 0 0 0 0.5 0"/><feBlend in2="BackgroundImageFix" result="effect1_dropShadow_3306_86898"/><feBlend in="SourceGraphic" in2="effect1_dropShadow_3306_86898" result="shape"/></filter><linearGradient id="prefix__paint0_linear_3306_86898" x1="5.573" y1="16.846" x2="25.297" y2="16.846" gradientUnits="userSpaceOnUse"><stop stop-color="#25C7D9"/><stop offset=".31" stop-color="#1FCFD5"/><stop offset=".79" stop-color="#0EE6CC"/><stop offset="1" stop-color="#05F2C7"/></linearGradient><linearGradient id="prefix__paint1_linear_3306_86898" x1="24.247" y1="3.939" x2="-.798" y2="29.314" gradientUnits="userSpaceOnUse"><stop stop-color="#4878D9"/><stop offset=".01" stop-color="#467BD9"/><stop offset=".12" stop-color="#3893D9"/><stop offset=".23" stop-color="#2DA4D9"/><stop offset=".35" stop-color="#27AED9"/><stop offset=".5" stop-color="#25B1D9"/><stop offset="1" stop-color="#05F2AF"/></linearGradient><clipPath id="prefix__clip0_3306_86898"><path fill="#fff" d="M0 0h134v32H0z"/></clipPath></defs></svg>