<svg xmlns="http://www.w3.org/2000/svg" fill="none" viewBox="0 0 145 81"><path fill="#000" d="m13.58 13.102-.012.183c0 .285.008.497.024.636.025.13.11.29.257.477.147.179.623.268 1.43.268l.33.013c.122 0 .232-.013.33-.037l.012 4.559H9.267l-.416.024h-.134c-.302 0-.632-.098-.99-.293a5.46 5.46 0 0 1-.807-.513 2.054 2.054 0 0 1-.44-.587 3.748 3.748 0 0 1-.415-1.296c-.04-.431-.061-.965-.061-1.6V8.163H4.562l-.012-1.71V4.704h1.405V.66h3.776l3.776-.012.012 4.033h2.04l.013 1.748v1.735H13.58v4.938Zm19.87-2.041.012 3.801V17.1l.012 2.102h-6.941l-.012-6.258.037-1.356c0-.742-.11-1.292-.33-1.65-.212-.367-.477-.55-.795-.55-.602 0-.977.301-1.124.904-.106.424-.159.978-.159 1.662v1.565l.013.513v5.158l-3.508.012h-3.482l-.012-9.582V.024C18.798.008 21.156 0 24.236 0l.012 6.16a6.347 6.347 0 0 1 2.077-1.54c.823-.383 1.573-.574 2.249-.574.676 0 1.34.162 1.992.488a4.7 4.7 0 0 1 1.613 1.296c.358.562.664 1.243.916 2.041.253.79.379 1.45.379 1.98l-.024 1.21ZM41 4.204a4.214 4.214 0 0 1 1.175-.159c.415 0 .81.017 1.185.05l.513.048c.807.074 1.426.167 1.857.281v-.012l.257.11c1.71.53 3.043 1.336 3.996 2.42V6.93c.22.26.489.656.806 1.185.326.522.489.884.489 1.088l.098.33.06.355c.156.546.233 1.002.233 1.369 0 .366.004.647.013.843h-10.07v.403c.049.188.074.383.074.587v.489c.008.114.02.228.036.342.017.106.025.196.025.269.008.065.028.146.06.244a.66.66 0 0 1 .05.184c.008.032.032.097.073.195.049.098.086.192.11.281.033.082.09.163.17.245v-.013l.136.257c.154.171.366.293.635.367.448-.098.75-.33.904-.697.163-.367.298-.823.404-1.369.293-.081.708-.122 1.246-.122l1.564.037h4.509a6.61 6.61 0 0 1-.88 2.738h.013c-.424.668-1.084 1.242-1.98 1.723-2.534.888-4.16 1.332-4.876 1.332-.13 0-.236-.008-.317-.024h-.281l-.11.012h-.11c-.066 0-.147-.008-.245-.025a.558.558 0 0 1-.293.074l-1.063-.123c-.057.025-.175.037-.355.037-.171 0-.627-.11-1.368-.33v.012l-.293-.085-.294-.098a7.082 7.082 0 0 1-3.14-1.882 6.267 6.267 0 0 1-1.674-3.153c-.025-.147-.07-.367-.135-.66-.065-.302-.098-.506-.098-.612v-.586c0-.139.005-.245.013-.318v-.183c0-1.728.513-3.219 1.539-4.474 1.027-1.263 2.404-2.15 4.13-2.664l.294-.086c.432-.073.74-.15.929-.232L41 4.204Zm3.655 6.282.257-.158c-.14-.88-.27-1.443-.391-1.687a6.418 6.418 0 0 0-.355-.648c-.211-.342-.493-.513-.843-.513-.342 0-.635.17-.88.513-.431.603-.704 1.45-.818 2.542a23.221 23.221 0 0 1 1.442-.049h1.588Z"></path><path fill="#FECCCB" d="m30.953 59.673.138-2.009c0-.346-.104-1.281-.311-2.805-.3.531-.716 1.062-1.247 1.593-.508.531-.935.843-1.281.935-2.516 1.108-5.574 1.662-9.175 1.662-3.578 0-6.798-.727-9.66-2.181-2.839-1.478-5.124-3.602-6.855-6.372C.854 47.726 0 44.77 0 41.63c0-3.14.462-5.922 1.385-8.346.946-2.447 2.25-4.571 3.912-6.372 1.685-1.8 3.763-3.22 6.232-4.26 2.47-1.038 5.17-1.557 8.102-1.557 4.686 0 8.598 1.304 11.737 3.913a10.088 10.088 0 0 0 1.801 1.558l.484-1.524V22.62h8.968l9.001-.034.035 32.684-.035 5.893-.207 1.939v.208c.023.023-.069.542-.277 1.558a17.344 17.344 0 0 1-.762 2.701c-.946 2.54-2.827 4.848-5.643 6.926-2.816 2.1-4.295 2.66-7.128 3.676-.651.214-1.034.365-2.103.66.139-.047-1.029.259 0 0l-1.907.48c-2.334.606-3.15.656-5.204.656-2.032 0-2.943.08-3.013.034h-1.319c-.208.07 0 0-1.52 0-.877 0-2.492-.265-4.847-.796l-1.108-.243c-1.685-.346-3.22-.842-4.604-1.489-3.278-1.316-5.852-3.07-7.721-5.263-1.87-2.194-3.14-5.23-3.809-9.108l-.07-.312c.74.047 1.824.07 3.255.07l5.678-.104h15.338l-.034.138c0 1.2.254 2.286.761 3.255.531.993 1.224 1.49 2.078 1.49 1.5 0 2.516-.855 3.047-2.563.415-1.34.623-2.759.623-4.26v-.692c-.069 0-.104.046-.104.138-.046-.069-.069-.265-.069-.588Zm.969-18.839.035-.415c-.208-6.695-1.685-10.043-4.432-10.043-.785 0-1.477.289-2.077.866-.97.923-1.639 2.309-2.008 4.155-.347 1.847-.52 3.452-.52 4.814l.104 1.212v.312l-.035.242v.208c0 1.893.451 3.74 1.351 5.54.9 1.778 2.043 2.667 3.427 2.667 1.524 0 2.793-1.893 3.809-5.68h-.173c.346-.9.519-1.823.519-2.77v-1.108ZM77.624 9.39l.035 9.49H56.331c0-2.217-.023-3.798-.069-4.745l-.035-4.675 21.397-.07Zm-21.743.07.346-.346v.346h-.346Zm21.882 43.598.034.312.035 5.195a49.1 49.1 0 0 1-.139 3.393c-.092 1.316-.173 1.997-.242 2.043l-.623.07H64.225l-1.454.138c-3.6 0-5.794-.046-6.578-.138v-.243l-.035-.658v-1.558c0-4.548.07-8.323.208-11.324l.381-26.664v-1.04l2.7-.034.59.035h1.003l.865.034.451-.034h2.492l.52-.035 11.806.139a.947.947 0 0 1 .208-.035c.046 0 .07.07.07.208l.034 3.29c.023 2.193.07 5.136.138 8.83.07 3.67.104 6.268.104 7.791l-.035 4.33v1.834l.104 1.836v1.073c0 .024-.01.07-.034.139v1.073Zm4.293-30.473 9.21-.035h9.209l.762 4.64c.531 3.255.842 5.102.935 5.541h1.211c.855-3.948 2.493-6.753 4.917-8.415l1.385-.796c.069-.139.485-.393 1.246-.762l-.138.034.796-.311c2.262-.9 4.212-1.362 5.851-1.386.347 0 .577.024.693.07h1.281v19.323c-.485-.115-1.247-.173-2.285-.173a12.3 12.3 0 0 0-3.22.45c-1.085.3-2.008.693-2.77 1.177a7.157 7.157 0 0 0-1.939 1.801c-1.708 2.286-2.562 5.714-2.562 10.285l.069 3.636v6.372l-12.325.035H82.09l-.034-20.674V22.585Zm41.686-12.917 8.794-.035c2.677 0 6.832.023 12.464.07V64.07h-21.189l-.069-54.402Z"></path></svg>