<svg xmlns="http://www.w3.org/2000/svg" viewBox="0 0 790.16 225.227"><g><path d="M598.379 65.545h28.984v11.088c5.292-7.308 12.348-13.104 25.956-13.104 9.326 0 13.862 1.512 17.642 4.286L660.627 95.03c-5.544-3.275-8.568-4.283-14.615-4.283-10.081 0-15.373 5.545-18.65 12.098v76.107H598.38V65.545M143.397 179.457h-25.959l-27.972-58.586-27.974 58.586H36.795L0 65.547h33.96s17.453 71.573 18.461 76.864c1.259-4.788 37.302-76.864 37.302-76.864h2.005s36.8 71.825 38.061 77.118c1.009-5.293 17.198-77.118 17.198-77.118h32.197l-35.787 113.91M385.93 145.687v-11.592c-5.04-3.78-11.591-5.545-19.907-5.545-9.579 0-18.146 4.536-18.146 14.113 0 8.569 7.056 13.357 16.128 13.357 12.096 0 18.398-5.293 21.926-10.333m-58.216-72.075c9.829-5.797 25.201-10.837 40.07-10.837 33.518 0 45.363 17.136 45.363 47.125v69.055h-25.2V165.85c-6.05 8.567-18.145 14.615-33.52 14.615-20.664 0-35.533-12.853-35.533-34.778 0-24.952 18.397-36.796 41.33-36.796 10.079 0 20.16 3.278 25.706 7.31.756-18.901-4.284-29.234-21.17-29.234-13.104 0-21.42 4.033-29.738 7.813l-7.308-21.168M553.05 141.403c10.837 0 18.397 9.829 18.397 18.65 0 10.332-7.56 20.162-18.398 20.162-12.601 0-20.16-9.83-20.16-20.163 0-8.82 7.559-18.65 20.16-18.65M790.165 178.953h-28.982v-13.861c-6.804 8.316-18.648 16.632-36.292 16.632-22.175 0-39.815-14.362-39.815-46.873V65.547h28.98V128.8c0 15.122 5.797 25.957 21.673 25.957 9.578 0 18.903-5.291 25.454-13.858V65.547h28.982v113.406M451.37 225.227h31.049c2.109-4.505 14.042-40.64 16.352-46.274l44.606-113.406h-33.013l-25.92 74.762-30.532-74.762h-34.777l50.442 109.132-18.206 50.548M185.981 123.526c12.728-5.476 13.726-13.621 19.532-27.832 7.66-18.746 22.576-24.537 22.576-24.537s-13.877 10.675-19.468 24.739c-4.581 11.527-5.484 24.31-20.241 31.504-3.528 1.72-6.613 2.89-9.263 3.689a65.234 65.234 0 005.866 22.488c20.801-2.744 28.722-17.9 34.716-35.956 9.196-27.705 19.45-33.349 19.45-33.349s-6.933 5.536-19.949 44.914c-6.965 21.07-22.225 27.253-31.84 29.02a65.676 65.676 0 005.448 8.156c5.479.353 12.13.24 18.315-1.33 7.808-1.98 14.706-5.581 19.517-8.563 15.093-9.804 23.899-26.262 29.497-36.486 1.195-2.18 7.763-12.386 10.252-19.62 2.864-8.324 2.814-15.115 1.948-20.743 4.14 3.83 6.21 7.959 7.347 10.67.71 1.693 1.36 4.392 1.781 7.358 1.538-.378 3.639-1.172 5.82-2.873 4.211-3.284 10.083-10.842-6.309-23.364-10.428-6.975-22.945-11.067-36.432-11.067-36.22 0-65.587 29.336-65.64 65.543a45.062 45.062 0 007.077-2.361M226.283 164.076c-4.571 2.177-10.399 4.301-17.662 5.727-4.701.924-8.829.994-12.384.616a65.852 65.852 0 0016.466 12.97c2.956-3.788 8.506-11.026 13.58-19.313" fill="#f42f3a"></path><path d="M281.59 0v68.005c7.078 5.272 14.067 12.404 13.48 19.743-.677 8.463-8.113 11.904-13.245 13.286.072 1.016.123 2.033.123 3.024 0 2.6 2.164 4.33 2.164 4.33 2.475 2.222 7.365 5.625 8.57 6.509 1.278 1.028.197 3.135-.647 3.885-1.592 1.124-2.124.7-2.507 2.492-.064 1.662.793 2.338 1.56 2.626.128.01.436.14.565.138 0 0 .391.117.564.604.184.5.14 1.04.127 1.194-.144 1.798-1.883 2.683-5.323 3.966 2.128.117 5.039.67 4.352 2.878-.177 1.168-1.042 1.51-1.897 1.975-.899.434-1.212 1.991-1.26 2.47-.048 2.01 2.047 3.179 1.91 5.891-.089 1.093-.607 2.841-1.866 3.91-4.425 3.758-15.992 1.707-21.58 2.92-6.657 1.263-14.885 22.157-15.84 41.474 33.299-3.17 59.345-31.205 59.345-65.335h.39V0H281.59" fill="#f42f3a"></path></g></svg>